# xmcd
#
# Track frame offsets: 
#        150
#        24802
#        48445
#        87392
#        103697
#        124110
#        162475
#        185752
#        217492
#        242790
#
# Disc length: 3532 seconds
#
# Revision: 9
# Processed by: cddbd v1.5.2PL0 Copyright (c) Steve Scherf et al.
# Submitted via: ExactAudioCopy v1.3
#
DISCID=8f0dca0a
DTITLE=B.B. King - Why I Sing the Blues
DYEAR=1983
DGENRE=Blues
TTITLE0=The Thrill Is Gone
TTITLE1=Ghetto Woman
TTITLE2=Why I Sing the Blues
TTITLE3=Ain't Nobody Home
TTITLE4=Hummingbird
TTITLE5=To Know You Is to Love You
TTITLE6=How Blue Can You Get?
TTITLE7=Sweet Sixteen
TTITLE8=So Excited
TTITLE9=Chains and Things (With Carole King on Piano)
EXTD=
EXTT0=
EXTT1=
EXTT2=
EXTT3=
EXTT4=
EXTT5=
EXTT6=
EXTT7=
EXTT8=
EXTT9=
PLAYORDER=
